<svg id="Layer_1" data-name="Layer 1" xmlns="http://www.w3.org/2000/svg" viewBox="0 0 65.63 22.97"><path d="M3.42,23.68h0a.68.68,0,0,0-.23-.53.73.73,0,0,0-.54-.22H2.47v-.12h1Zm0,6.65v.88h-1v-.13h.14a.73.73,0,0,0,.54-.22.67.67,0,0,0,.23-.53Zm.74-7.52v8.4H3.38v-8.4Zm.69,0a3.54,3.54,0,0,1,1.42.25,2,2,0,0,1,.88.7,1.85,1.85,0,0,1,.3,1,1.87,1.87,0,0,1-.19.88,1.76,1.76,0,0,1-.49.61,1.78,1.78,0,0,1-.64.33,2.75,2.75,0,0,1,1.1.42,2.29,2.29,0,0,1,.71.81A2.45,2.45,0,0,1,8.18,29a2.19,2.19,0,0,1-.32,1.18,2.1,2.1,0,0,1-1,.79,3.63,3.63,0,0,1-1.51.29H4.05c0-.15,0-.29,0-.44H5.34a2.23,2.23,0,0,0,1-.22,1.48,1.48,0,0,0,.66-.65,2.09,2.09,0,0,0,.23-1A2,2,0,0,0,7,27.77a1.66,1.66,0,0,0-.66-.63,3,3,0,0,0-.88-.3,5.84,5.84,0,0,0-.91-.07v-.11a3.49,3.49,0,0,0,.61-.06,2,2,0,0,0,.65-.24,1.42,1.42,0,0,0,.52-.54,1.89,1.89,0,0,0,.2-.93,2,2,0,0,0-.2-.92,1.28,1.28,0,0,0-.59-.58,2,2,0,0,0-1-.2H3.69a.65.65,0,0,0,0-.1l-.09-.28Z" transform="translate(-2.46 -22.81)"/><path d="M13.41,23.84a4.56,4.56,0,0,1,1.58.27,3.86,3.86,0,0,1,1.3.77,3.7,3.7,0,0,1,.87,1.2,3.68,3.68,0,0,1-.87,4.25,3.86,3.86,0,0,1-1.3.77,4.56,4.56,0,0,1-1.58.27,4.5,4.5,0,0,1-1.57-.27,3.82,3.82,0,0,1-1.29-.77,3.79,3.79,0,0,1-.87-4.25,3.7,3.7,0,0,1,.87-1.2,3.82,3.82,0,0,1,1.29-.77A4.5,4.5,0,0,1,13.41,23.84Zm0,7.17A3,3,0,0,0,15,30.58a3.13,3.13,0,0,0,1.14-1.2,4,4,0,0,0,0-3.56A3.11,3.11,0,0,0,15,24.63a3.19,3.19,0,0,0-3.2,0,3.11,3.11,0,0,0-1.14,1.19,4,4,0,0,0,0,3.56,3.13,3.13,0,0,0,1.14,1.2A3,3,0,0,0,13.41,31Z" transform="translate(-2.46 -22.81)"/><path d="M22.7,23.84a4.56,4.56,0,0,1,1.58.27,3.86,3.86,0,0,1,1.3.77,3.7,3.7,0,0,1,.87,1.2,3.93,3.93,0,0,1,0,3.06,3.66,3.66,0,0,1-.87,1.19,3.86,3.86,0,0,1-1.3.77,4.56,4.56,0,0,1-1.58.27,4.5,4.5,0,0,1-1.57-.27,3.82,3.82,0,0,1-1.29-.77A3.79,3.79,0,0,1,19,26.08a3.7,3.7,0,0,1,.87-1.2,3.82,3.82,0,0,1,1.29-.77A4.5,4.5,0,0,1,22.7,23.84Zm0,7.17a3.06,3.06,0,0,0,1.61-.43,3.13,3.13,0,0,0,1.14-1.2,4,4,0,0,0,0-3.56,3.11,3.11,0,0,0-1.14-1.19,3.06,3.06,0,0,0-1.61-.43,3,3,0,0,0-1.59.43A3.11,3.11,0,0,0,20,25.82a4,4,0,0,0,0,3.56,3.13,3.13,0,0,0,1.14,1.2A3,3,0,0,0,22.7,31Z" transform="translate(-2.46 -22.81)"/><path d="M27.17,23.8a3.32,3.32,0,0,0,.33.09c.14,0,.31.05.49.07l.52,0-1.34.12Zm6.58.19v.36H27.17V24Zm-5.85.34v0a.6.6,0,0,0-.6.61v.2h-.13v-.83Zm2.19,6.11v.77h-.87v-.13h.14a.67.67,0,0,0,.49-.19.63.63,0,0,0,.22-.45Zm.76-6.4v7.17h-.78V24Zm0,6.4h0a.63.63,0,0,0,.22.45.67.67,0,0,0,.49.19h.13v.13h-.88Zm2.94-6.64v.31L32.41,24l.51,0,.5-.07A3.32,3.32,0,0,0,33.75,23.8Zm0,.53v.83h-.13V25a.6.6,0,0,0-.6-.61v0Z" transform="translate(-2.46 -22.81)"/><path d="M36.73,23.84l.59,0,.44.06a2.21,2.21,0,0,1,.32.07l.25.07v1.19h-.15a1,1,0,0,0-.33-.77,1.91,1.91,0,0,0-2.07.05,1,1,0,0,0-.42.81,1.25,1.25,0,0,0,.05.32.85.85,0,0,0,.14.31,1.6,1.6,0,0,0,.28.32l2.43,1.87a1.26,1.26,0,0,1,.4.58,2.26,2.26,0,0,1,.15.7,1.67,1.67,0,0,1-.28,1,2.11,2.11,0,0,1-.77.71,2.29,2.29,0,0,1-1.08.25,5.14,5.14,0,0,1-.75-.06,4.56,4.56,0,0,1-.75-.18,1.93,1.93,0,0,1-.57-.32,1.69,1.69,0,0,1,0-.43,5.29,5.29,0,0,1,0-.54,3.33,3.33,0,0,1,.12-.52h.14a1.64,1.64,0,0,0,.16.93,1.3,1.3,0,0,0,.6.58,1.92,1.92,0,0,0,.92.18,1.86,1.86,0,0,0,1.17-.37,1.17,1.17,0,0,0,.43-.95,1.2,1.2,0,0,0-.43-1l-2.4-1.84a1.51,1.51,0,0,1-.46-.64,2,2,0,0,1-.12-.66A1.6,1.6,0,0,1,35,24.7a2,2,0,0,1,.72-.63A2.2,2.2,0,0,1,36.73,23.84Zm1.58.11,0,.21h-.86V24Z" transform="translate(-2.46 -22.81)"/><path d="M39.65,23.8a3.32,3.32,0,0,0,.33.09c.14,0,.31.05.49.07L41,24l-1.34.12Zm6.58.19v.36H39.65V24Zm-5.85.34v0a.6.6,0,0,0-.6.61v.2h-.13v-.83Zm2.19,6.11v.77H41.7v-.13h.14a.67.67,0,0,0,.49-.19.63.63,0,0,0,.22-.45Zm.76-6.4v7.17h-.78V24Zm0,6.4h0a.63.63,0,0,0,.22.45.67.67,0,0,0,.49.19h.13v.13h-.88Zm2.94-6.64v.31L44.89,24l.51,0,.5-.07A3.32,3.32,0,0,0,46.23,23.8Zm0,.53v.83H46.1V25a.6.6,0,0,0-.6-.61v0Z" transform="translate(-2.46 -22.81)"/><path d="M47.94,24.76h0a.59.59,0,0,0-.2-.45.69.69,0,0,0-.48-.19h-.17V24h1Zm0,5.68.14.77h-1v-.13h.17a.65.65,0,0,0,.48-.19.61.61,0,0,0,.2-.45ZM48.67,24v7.21H47.9V24Zm0,6.44h0a.69.69,0,0,0,.2.45.65.65,0,0,0,.48.19h.16v.13h-1ZM50.07,24a3.54,3.54,0,0,1,1,.14,2.31,2.31,0,0,1,.77.38,1.67,1.67,0,0,1,.48.61,2,2,0,0,1,.17.82,1.91,1.91,0,0,1-.24.94,2,2,0,0,1-.67.7,2.09,2.09,0,0,1-1,.34,1.65,1.65,0,0,1,.47.37,3.83,3.83,0,0,1,.46.57l.56.72c.16.2.33.4.49.58s.32.35.46.48a1.42,1.42,0,0,0,.46.32,1.26,1.26,0,0,0,.57.11v.13h-.38A3,3,0,0,1,52.65,31a1.93,1.93,0,0,1-.69-.42,5,5,0,0,1-.46-.47l-.22-.31-.38-.53-.37-.52c-.11-.16-.18-.25-.2-.29a3.24,3.24,0,0,0-.56-.55,1,1,0,0,0-.66-.25v-.12q.39,0,.69,0c.22,0,.45,0,.67,0a1.44,1.44,0,0,0,.63-.26,1.45,1.45,0,0,0,.46-.72,1.29,1.29,0,0,0,.07-.31,2.3,2.3,0,0,0,0-.37,1.56,1.56,0,0,0-.13-.6,1.52,1.52,0,0,0-.32-.46,1.48,1.48,0,0,0-.5-.3,2.21,2.21,0,0,0-.65-.12c-.38,0-.7,0-1,0a2.21,2.21,0,0,1-.42,0,1.1,1.1,0,0,1,0-.11L48.53,24Z" transform="translate(-2.46 -22.81)"/><path d="M55.64,30.33a.54.54,0,0,0,0,.56.49.49,0,0,0,.38.19h.1v.13H53.87v-.13H54a.92.92,0,0,0,.52-.17,1.32,1.32,0,0,0,.45-.58ZM58,23.84l.08.83-2.75,6.5h-.75l2.84-6.1c.09-.19.16-.35.22-.49s.12-.28.17-.42a2.44,2.44,0,0,0,.08-.32Zm1.41,4.57v.36H56.19v-.36ZM58,23.84l3.3,7.29h-.95l-2.56-6.22Zm2,6.49h.91a1.31,1.31,0,0,0,.44.58.91.91,0,0,0,.51.17h.09v.13H59.48v-.13h.1a.48.48,0,0,0,.37-.19A.57.57,0,0,0,60,30.33Z" transform="translate(-2.46 -22.81)"/><path d="M63.43,24.76h0a.64.64,0,0,0-.21-.45.73.73,0,0,0-.49-.19h-.17V24h1.05Zm0,5.68.16.77H62.54v-.13h.17a.69.69,0,0,0,.49-.19.66.66,0,0,0,.21-.45ZM64.17,24v7.21h-.76V24Zm0,6.44h0a.66.66,0,0,0,.21.45.67.67,0,0,0,.49.19H65v.13H64ZM65.35,24a4,4,0,0,1,1.45.25,2.11,2.11,0,0,1,1,.71,1.84,1.84,0,0,1,.34,1.1,2.22,2.22,0,0,1-.31,1.17A2,2,0,0,1,67,28a2.33,2.33,0,0,1-1.12.25,2.78,2.78,0,0,1-1.22-.3V27.8a3,3,0,0,0,.71.06,2.28,2.28,0,0,0,.66-.11,1.59,1.59,0,0,0,.65-.37,1.85,1.85,0,0,0,.49-.8,1.22,1.22,0,0,0,.06-.31,1.94,1.94,0,0,0,0-.33,1.43,1.43,0,0,0-.5-1.15,2.12,2.12,0,0,0-1.39-.42H64.15c0-.12-.08-.25-.13-.37Z" transform="translate(-2.46 -22.81)"/><path d="M26.79,42.1,26.64,44a3.44,3.44,0,0,1-.78.92,3.72,3.72,0,0,1-1.12.64,4.45,4.45,0,0,1-1.47.23,4.51,4.51,0,0,1-2.22-.55,3.9,3.9,0,0,1-1.52-1.52A4.7,4.7,0,0,1,19,41.39a4.63,4.63,0,0,1,.54-2.28,3.86,3.86,0,0,1,1.52-1.53A4.64,4.64,0,0,1,23.34,37a5.05,5.05,0,0,1,1.61.23,5.48,5.48,0,0,1,1.24.58l.24,1.69h-.11a2.66,2.66,0,0,0-1.08-1.6,3.36,3.36,0,0,0-1.9-.54,3.26,3.26,0,0,0-1.83.5,3.34,3.34,0,0,0-1.2,1.39,4.84,4.84,0,0,0-.42,2.09,4.92,4.92,0,0,0,.42,2.1,3.35,3.35,0,0,0,1.19,1.4,3.21,3.21,0,0,0,1.77.53,3.91,3.91,0,0,0,1.58-.31,2.91,2.91,0,0,0,1.22-1.05,4.23,4.23,0,0,0,.62-1.95Z" transform="translate(-2.46 -22.81)"/><path d="M29.1,44.73a.57.57,0,0,0,0,.56.49.49,0,0,0,.38.19h.1v.12H27.33v-.12h.09a.92.92,0,0,0,.52-.17,1.33,1.33,0,0,0,.46-.58Zm2.32-6.49.08.82-2.74,6.51H28l2.84-6.1c.09-.19.17-.35.23-.49l.16-.42a1.46,1.46,0,0,0,.08-.32Zm1.42,4.57v.36H29.66v-.36Zm-1.42-4.57,3.3,7.29h-.95l-2.55-6.22Zm2,6.49h.91a1.31,1.31,0,0,0,.44.58.91.91,0,0,0,.51.17h.09v.12H32.94v-.12H33a.47.47,0,0,0,.37-.19A.54.54,0,0,0,33.45,44.73Z" transform="translate(-2.46 -22.81)"/><path d="M36.88,39.16h0a.64.64,0,0,0-.21-.45.65.65,0,0,0-.48-.19H36V38.4h1Zm0,5.68.14.76H36v-.12h.17a.65.65,0,0,0,.48-.19.66.66,0,0,0,.21-.45Zm.73-6.44v7.2h-.77V38.4Zm0,6.44h0a.66.66,0,0,0,.21.45.62.62,0,0,0,.48.19h.15v.12h-1ZM39,38.4a3.52,3.52,0,0,1,1,.14,2.06,2.06,0,0,1,.77.38,1.67,1.67,0,0,1,.48.61,1.8,1.8,0,0,1,.17.82,1.91,1.91,0,0,1-.24.94,2,2,0,0,1-.66.7,2.17,2.17,0,0,1-1,.34,1.53,1.53,0,0,1,.47.37,4.72,4.72,0,0,1,.47.57l.55.72.49.58c.17.19.32.35.46.48a1.59,1.59,0,0,0,.46.32,1.26,1.26,0,0,0,.57.11v.12h-.37a3.06,3.06,0,0,1-1.09-.16A2.12,2.12,0,0,1,40.9,45a5,5,0,0,1-.46-.47l-.22-.31-.38-.53-.37-.52c-.11-.16-.18-.25-.2-.29a3.58,3.58,0,0,0-.55-.55,1,1,0,0,0-.66-.25V42c.25,0,.48,0,.68,0s.45,0,.67,0a1.35,1.35,0,0,0,.63-.26A1.39,1.39,0,0,0,40.5,41a1.27,1.27,0,0,0,.08-.31,2.29,2.29,0,0,0,0-.37,1.56,1.56,0,0,0-.13-.6,1.23,1.23,0,0,0-.32-.46,1.48,1.48,0,0,0-.5-.3,2.15,2.15,0,0,0-.65-.12c-.37,0-.7,0-1,0h-.42a.62.62,0,0,0,0-.11l-.09-.27Z" transform="translate(-2.46 -22.81)"/><path d="M44.39,39.19h0a.67.67,0,0,0-.21-.48.71.71,0,0,0-.49-.19h-.14V38.4h.86Zm0,5.64v.77h-.86v-.12h.15a.62.62,0,0,0,.48-.19.72.72,0,0,0,.21-.46Zm.76-6.43v7.2h-.78V38.4Zm2.39,0a4.52,4.52,0,0,1,2.05.44,3.07,3.07,0,0,1,1.33,1.24A3.79,3.79,0,0,1,51.39,42a3.74,3.74,0,0,1-.47,1.92,3.15,3.15,0,0,1-1.33,1.25,4.52,4.52,0,0,1-2.05.43H45l0-.35h2.58a2.85,2.85,0,0,0,2.19-.87,4,4,0,0,0,0-4.75,2.88,2.88,0,0,0-2.19-.86H44.83V38.4Z" transform="translate(-2.46 -22.81)"/></svg>