<svg id="Layer_1" data-name="Layer 1" xmlns="http://www.w3.org/2000/svg" viewBox="0 0 38.28 13.4"><path d="M4.63,11.82h0a.42.42,0,0,0-.13-.32.48.48,0,0,0-.32-.13H4.08v-.06h.56Zm0,3.87v.52H4.07v-.07h.08A.48.48,0,0,0,4.48,16a.42.42,0,0,0,.13-.32Zm.43-4.38v4.9H4.61v-4.9Zm.4,0a2,2,0,0,1,.83.14,1.21,1.21,0,0,1,.52.41,1.14,1.14,0,0,1,.17.61,1.08,1.08,0,0,1-.11.52,1,1,0,0,1-.29.36,1.09,1.09,0,0,1-.37.19,1.58,1.58,0,0,1,.64.24,1.38,1.38,0,0,1,.42.48,1.42,1.42,0,0,1,.14.63A1.19,1.19,0,0,1,6.66,16a2.12,2.12,0,0,1-.88.17H5A2.26,2.26,0,0,0,5,16h.74a1.32,1.32,0,0,0,.62-.13.87.87,0,0,0,.38-.38,1.26,1.26,0,0,0,.13-.6,1.24,1.24,0,0,0-.15-.64,1.12,1.12,0,0,0-.38-.37,1.77,1.77,0,0,0-.52-.17,3.23,3.23,0,0,0-.53,0v-.07l.36,0A1.34,1.34,0,0,0,6,13.38a.89.89,0,0,0,.3-.31,1.09,1.09,0,0,0,.12-.55A1.13,1.13,0,0,0,6.34,12,.8.8,0,0,0,6,11.64a1.33,1.33,0,0,0-.56-.11H4.79a.1.1,0,0,0,0-.06.9.9,0,0,0,0-.16Z" transform="translate(-4.07 -11.31)"/><path d="M10.46,11.91a2.77,2.77,0,0,1,.92.15,2.34,2.34,0,0,1,.76.46,2.16,2.16,0,0,1,0,3.17,2.34,2.34,0,0,1-.76.46,2.9,2.9,0,0,1-1.84,0,2.41,2.41,0,0,1-.75-.46A2.07,2.07,0,0,1,8.28,15a2.32,2.32,0,0,1,0-1.79,2.07,2.07,0,0,1,.51-.69,2.41,2.41,0,0,1,.75-.46A2.77,2.77,0,0,1,10.46,11.91Zm0,4.18a1.77,1.77,0,0,0,1.6-.95,2.05,2.05,0,0,0,.25-1,2,2,0,0,0-.25-1,1.77,1.77,0,0,0-1.6-1,1.75,1.75,0,0,0-.93.25,1.78,1.78,0,0,0-.66.7,2,2,0,0,0-.25,1,2.05,2.05,0,0,0,.25,1,1.78,1.78,0,0,0,.66.7A1.75,1.75,0,0,0,10.46,16.09Z" transform="translate(-4.07 -11.31)"/><path d="M15.88,11.91a2.77,2.77,0,0,1,.92.15,2.34,2.34,0,0,1,.76.46,2,2,0,0,1,.5.69,2.2,2.2,0,0,1,0,1.79,2,2,0,0,1-.5.69,2.34,2.34,0,0,1-.76.46,2.9,2.9,0,0,1-1.84,0,2.41,2.41,0,0,1-.75-.46A1.94,1.94,0,0,1,13.7,15a2.32,2.32,0,0,1,0-1.79,1.94,1.94,0,0,1,.51-.69,2.41,2.41,0,0,1,.75-.46A2.77,2.77,0,0,1,15.88,11.91Zm0,4.18a1.77,1.77,0,0,0,1.6-.95,2.05,2.05,0,0,0,.25-1,2,2,0,0,0-.25-1,1.77,1.77,0,0,0-1.6-1,1.75,1.75,0,0,0-.93.25,1.88,1.88,0,0,0-.67.7,2.12,2.12,0,0,0-.24,1,2.16,2.16,0,0,0,.24,1,1.88,1.88,0,0,0,.67.7A1.75,1.75,0,0,0,15.88,16.09Z" transform="translate(-4.07 -11.31)"/><path d="M18.48,11.89l.2,0L19,12l.3,0-.79.07Zm3.85.11v.21H18.48V12Zm-3.42.19v0a.35.35,0,0,0-.26.11.34.34,0,0,0-.09.24v.12h-.08v-.49Zm1.28,3.57v.45h-.51v-.07h.08a.43.43,0,0,0,.42-.38ZM20.63,12v4.18h-.45V12Zm0,3.73h0a.38.38,0,0,0,.13.26.38.38,0,0,0,.28.12h.08v.07h-.51Zm1.72-3.87v.18L21.54,12l.3,0,.29,0Zm0,.3v.49h-.08v-.12a.36.36,0,0,0-.35-.35v0Z" transform="translate(-4.07 -11.31)"/><path d="M24.06,11.91h.35l.25,0,.19,0L25,12v.69h-.08a.56.56,0,0,0-.2-.45.93.93,0,0,0-.61-.16,1,1,0,0,0-.6.19.59.59,0,0,0-.24.47,1.37,1.37,0,0,0,0,.19.76.76,0,0,0,.09.18.86.86,0,0,0,.16.18L25,14.43a.84.84,0,0,1,.24.34,1.15,1.15,0,0,1,.08.41,1,1,0,0,1-.16.56,1.11,1.11,0,0,1-.45.41,1.33,1.33,0,0,1-.63.15l-.44,0a2.7,2.7,0,0,1-.43-.11,1,1,0,0,1-.34-.19,1.44,1.44,0,0,1,0-.24c0-.1,0-.21,0-.32a1.67,1.67,0,0,1,.07-.3H23a.94.94,0,0,0,.1.54.73.73,0,0,0,.34.33,1.07,1.07,0,0,0,.54.11,1.11,1.11,0,0,0,.69-.22.69.69,0,0,0,.24-.55.6.6,0,0,0-.06-.3.64.64,0,0,0-.19-.26l-1.4-1.07a.84.84,0,0,1-.26-.38,1.06,1.06,0,0,1-.07-.38.93.93,0,0,1,.15-.52,1.08,1.08,0,0,1,.42-.37A1.24,1.24,0,0,1,24.06,11.91ZM25,12v.13H24.5V12Z" transform="translate(-4.07 -11.31)"/><path d="M25.76,11.89l.2,0,.29,0,.3,0-.79.07Zm3.85.11v.21H25.76V12Zm-3.42.19v0a.35.35,0,0,0-.26.11.34.34,0,0,0-.09.24v.12h-.08v-.49Zm1.28,3.57v.45H27v-.07H27a.43.43,0,0,0,.42-.38ZM27.91,12v4.18h-.45V12Zm0,3.73h0a.43.43,0,0,0,.42.38h.07v.07h-.51Zm1.72-3.87v.18L28.82,12l.3,0,.29,0Zm0,.3v.49h-.08v-.12a.36.36,0,0,0-.35-.35v0Z" transform="translate(-4.07 -11.31)"/><path d="M30.6,12.45h0a.42.42,0,0,0-.12-.27.4.4,0,0,0-.28-.1h-.1V12h.59Zm0,3.31.08.45h-.59v-.07h.1a.38.38,0,0,0,.28-.12.42.42,0,0,0,.12-.26ZM31,12v4.21h-.45V12Zm0,3.76h0a.34.34,0,0,0,.12.26.35.35,0,0,0,.28.12h.09v.07h-.6ZM31.85,12a2.16,2.16,0,0,1,.59.08,1.37,1.37,0,0,1,.45.23,1,1,0,0,1,.28.35,1.21,1.21,0,0,1,.1.48,1.18,1.18,0,0,1-.14.55,1.38,1.38,0,0,1-.39.41,1.25,1.25,0,0,1-.57.19,1,1,0,0,1,.28.22,2,2,0,0,1,.27.33l.33.42c.09.12.19.24.28.34l.27.28a1,1,0,0,0,.27.19.81.81,0,0,0,.33.07v.07H34a1.8,1.8,0,0,1-.63-.1,1.37,1.37,0,0,1-.4-.24,2.3,2.3,0,0,1-.27-.28l-.13-.18-.22-.31-.22-.31L32,14.63a2,2,0,0,0-.32-.33.64.64,0,0,0-.38-.14v-.07h.4l.39,0a.82.82,0,0,0,.36-.15.73.73,0,0,0,.27-.42.78.78,0,0,0,0-.18.81.81,0,0,0,0-.22,1,1,0,0,0-.07-.35.83.83,0,0,0-.19-.27.92.92,0,0,0-.29-.17,1.12,1.12,0,0,0-.38-.07H31a.28.28,0,0,0,0-.06,1.13,1.13,0,0,1-.06-.16Z" transform="translate(-4.07 -11.31)"/><path d="M35.09,15.69a.31.31,0,0,0,0,.33.26.26,0,0,0,.22.12h0v.07H34.06v-.07h0a.58.58,0,0,0,.31-.11.73.73,0,0,0,.26-.34Zm1.35-3.78.05.48-1.6,3.79h-.44l1.66-3.55.13-.29.09-.24a.67.67,0,0,0,.05-.19Zm.83,2.66v.21H35.42v-.21Zm-.83-2.66,1.93,4.25h-.55l-1.49-3.63Zm1.19,3.78h.53a.73.73,0,0,0,.26.34.53.53,0,0,0,.29.11h.06v.07H37.33v-.07h.06a.29.29,0,0,0,.22-.12A.34.34,0,0,0,37.63,15.69Z" transform="translate(-4.07 -11.31)"/><path d="M39.64,12.45h0a.34.34,0,0,0-.12-.27.4.4,0,0,0-.28-.1h-.1V12h.61Zm0,3.31.09.45h-.61v-.07h.1A.38.38,0,0,0,39.5,16a.34.34,0,0,0,.12-.26ZM40.07,12v4.21h-.45V12Zm0,3.76h0a.38.38,0,0,0,.13.26.36.36,0,0,0,.28.12h.1v.07H40ZM40.76,12a2.14,2.14,0,0,1,.84.15,1.19,1.19,0,0,1,.56.41,1.05,1.05,0,0,1,.19.64,1.21,1.21,0,0,1-.18.68,1.11,1.11,0,0,1-.47.44,1.38,1.38,0,0,1-.65.15,1.86,1.86,0,0,1-.71-.18v-.07a2.1,2.1,0,0,0,.41,0,2,2,0,0,0,.39-.07,1,1,0,0,0,.38-.22,1.09,1.09,0,0,0,.28-.46.8.8,0,0,0,0-.18,1.41,1.41,0,0,0,0-.2.84.84,0,0,0-.29-.67,1.27,1.27,0,0,0-.82-.25h-.68c0-.06-.05-.13-.08-.21Z" transform="translate(-4.07 -11.31)"/><path d="M18.26,22.56l-.08,1.1a2.36,2.36,0,0,1-.46.54,2.16,2.16,0,0,1-.65.37,2.55,2.55,0,0,1-.86.13,2.6,2.6,0,0,1-1.29-.32A2.22,2.22,0,0,1,14,23.5a3,3,0,0,1,0-2.69,2.19,2.19,0,0,1,.88-.88,2.63,2.63,0,0,1,1.34-.32,3.05,3.05,0,0,1,.94.13,3,3,0,0,1,.72.34l.14,1H18a1.48,1.48,0,0,0-.63-.93,1.9,1.9,0,0,0-1.11-.32,1.86,1.86,0,0,0-1.76,1.1,2.74,2.74,0,0,0-.25,1.22,2.79,2.79,0,0,0,.25,1.23,1.92,1.92,0,0,0,.69.82,2,2,0,0,0,1,.3,2.32,2.32,0,0,0,.92-.18,1.67,1.67,0,0,0,.71-.61,2.47,2.47,0,0,0,.37-1.14Z" transform="translate(-4.07 -11.31)"/><path d="M19.61,24.09a.31.31,0,0,0,0,.33.28.28,0,0,0,.22.12h.06v.06H18.58v-.06h.05a.58.58,0,0,0,.31-.11.73.73,0,0,0,.26-.34ZM21,20.31l.05.48-1.6,3.79H19L20.63,21l.13-.29a2.34,2.34,0,0,0,.09-.24.67.67,0,0,0,0-.19ZM21.79,23v.21H19.94V23ZM21,20.31l1.93,4.25h-.55l-1.49-3.63Zm1.19,3.78h.53a.73.73,0,0,0,.26.34.53.53,0,0,0,.29.11h.06v.06H21.85v-.06h.06a.29.29,0,0,0,.22-.12A.34.34,0,0,0,22.15,24.09Z" transform="translate(-4.07 -11.31)"/><path d="M24.15,20.85h0a.42.42,0,0,0-.12-.27.4.4,0,0,0-.28-.1h-.1V20.4h.59Zm0,3.31.08.44h-.59v-.06h.1a.38.38,0,0,0,.28-.12.42.42,0,0,0,.12-.26Zm.43-3.76v4.2h-.45V20.4Zm0,3.76h0a.34.34,0,0,0,.12.26.35.35,0,0,0,.28.12h.09v.06h-.6Zm.84-3.76a2.16,2.16,0,0,1,.59.08,1.37,1.37,0,0,1,.45.23,1,1,0,0,1,.28.35,1.21,1.21,0,0,1,.1.48,1.11,1.11,0,0,1-.14.54,1.31,1.31,0,0,1-.39.42,1.25,1.25,0,0,1-.57.19,1,1,0,0,1,.28.22,2,2,0,0,1,.27.33l.33.42c.09.12.19.24.28.34l.27.28a1,1,0,0,0,.27.19.81.81,0,0,0,.33.07v.06h-.22a1.83,1.83,0,0,1-.63-.09,1.37,1.37,0,0,1-.4-.24,2.3,2.3,0,0,1-.27-.28l-.13-.18-.22-.31-.22-.31a1.22,1.22,0,0,0-.12-.16,2,2,0,0,0-.32-.33.64.64,0,0,0-.38-.14v-.07a2.66,2.66,0,0,0,.4,0,2.56,2.56,0,0,0,.39,0,.82.82,0,0,0,.36-.15,1.15,1.15,0,0,0,.32-.6.81.81,0,0,0,0-.22,1,1,0,0,0-.07-.35.83.83,0,0,0-.19-.27.92.92,0,0,0-.29-.17,1.12,1.12,0,0,0-.38-.07h-.82a.15.15,0,0,0,0-.06s0-.08-.05-.16Z" transform="translate(-4.07 -11.31)"/><path d="M28.53,20.86h0a.47.47,0,0,0-.12-.28.43.43,0,0,0-.29-.1H28V20.4h.5Zm0,3.29v.45H28v-.06h.09a.38.38,0,0,0,.28-.12.47.47,0,0,0,.12-.27ZM29,20.4v4.2h-.45V20.4Zm1.4,0a2.58,2.58,0,0,1,1.19.26,1.82,1.82,0,0,1,.78.72,2.24,2.24,0,0,1,.27,1.12,2.19,2.19,0,0,1-.27,1.12,1.78,1.78,0,0,1-.78.73,2.58,2.58,0,0,1-1.19.25H28.88l0-.2h1.51a1.63,1.63,0,0,0,1.27-.51,2.28,2.28,0,0,0,0-2.77,1.63,1.63,0,0,0-1.27-.51H28.79V20.4Z" transform="translate(-4.07 -11.31)"/></svg>